<svg width="350" height="411" viewBox="0 0 350 411" fill="none" xmlns="http://www.w3.org/2000/svg">
<rect y="31" width="350" height="350" fill="black"/>
<path d="M116.398 290.182L89.9773 290.182L89.9773 145.722C89.9773 130.807 93.4929 117.49 100.524 105.771C107.484 94.1236 117.321 84.9261 130.034 78.179C142.747 71.5028 157.662 68.1648 174.778 68.1648C191.895 68.1648 206.81 71.5028 219.523 78.179C232.236 84.9261 242.108 94.1236 249.139 105.771C256.099 117.49 259.58 130.807 259.58 145.722L259.58 290.182L233.159 290.182L233.159 147.852C233.159 137.199 230.815 127.717 226.128 119.408C221.44 111.169 214.764 104.67 206.099 99.9119C197.364 95.2244 186.923 92.8807 174.778 92.8807C162.634 92.8807 152.193 95.2244 143.457 99.9119C134.722 104.67 128.045 111.169 123.429 119.408C118.741 127.717 116.398 137.199 116.398 147.852L116.398 290.182Z" fill="white"/>
<path d="M256.511 314.744L256.511 338.182L92.875 338.182L92.875 314.744L161.483 314.744L161.483 120L187.903 120L187.903 314.744L256.511 314.744Z" fill="white"/>
</svg>
